<?xml version="1.0" standalone="no"?>
<!DOCTYPE svg PUBLIC "-//W3C//DTD SVG 20010904//EN"
 "http://www.w3.org/TR/2001/REC-SVG-20010904/DTD/svg10.dtd">
<svg version="1.0" xmlns="http://www.w3.org/2000/svg"
 width="258.000000pt" height="258.000000pt" viewBox="0 0 258.000000 258.000000"
 preserveAspectRatio="xMidYMid meet">

<g transform="translate(0.000000,258.000000) scale(0.100000,-0.100000)"
fill="#000000" stroke="none">
<path d="M1118 2435 c-247 -39 -466 -150 -644 -329 -502 -501 -442 -1317 129
-1747 453 -341 1100 -293 1506 112 394 394 452 1011 138 1473 -57 85 -179 210
-272 279 -242 180 -558 258 -857 212z m1063 -732 c42 -22 59 -38 77 -73 25
-50 23 -85 -11 -160 -20 -43 -180 -214 -254 -270 -18 -14 -33 -30 -33 -36 0
-6 25 -39 55 -74 90 -104 93 -163 10 -205 -37 -19 -63 -20 -404 -23 l-365 -3
45 48 44 48 255 5 c140 3 263 10 273 14 31 15 19 51 -43 122 -33 38 -60 77
-60 86 0 9 38 49 85 88 121 101 235 237 235 281 0 26 -33 49 -72 49 -55 0
-132 -42 -199 -109 -44 -44 -70 -84 -112 -172 -57 -117 -87 -196 -87 -228 0
-28 -18 -37 -97 -50 -122 -19 -115 -25 -81 81 68 211 118 312 208 421 96 117
243 183 411 186 53 1 76 -4 120 -26z m-826 -7 c89 -41 144 -127 130 -204 -3
-20 -23 -71 -43 -112 -67 -137 -215 -260 -442 -368 -255 -120 -502 -184 -607
-156 -42 11 -47 94 -12 203 13 41 88 228 126 312 l24 56 92 21 c51 11 93 19
95 18 1 -2 -33 -77 -77 -167 -115 -239 -133 -303 -88 -314 61 -16 400 137 547
246 183 135 253 268 181 340 -28 28 -33 29 -123 29 -163 0 -523 -71 -758 -150
-47 -15 -86 -27 -88 -25 -5 5 19 120 27 134 13 21 383 107 606 141 66 10 174
19 240 19 106 1 126 -2 170 -23z"/>
</g>
</svg>
